<svg width="3591" height="1397" viewBox="0 0 3591 1397" fill="none" xmlns="http://www.w3.org/2000/svg">
<path d="M573.852 921C524.166 921 479.448 910.595 439.699 889.786C400.402 868.524 369.461 839.119 346.877 801.571C324.292 764.024 313 721.5 313 674C313 626.5 324.292 583.976 346.877 546.429C369.461 508.881 400.402 479.702 439.699 458.893C479.448 437.631 524.166 427 573.852 427C617.214 427 656.285 434.69 691.065 450.071C725.846 465.452 754.754 487.619 777.79 516.571L692.42 593.929C661.705 556.833 624.441 538.286 580.627 538.286C554.881 538.286 531.844 543.94 511.518 555.25C491.644 566.56 476.06 582.619 464.768 603.429C453.928 623.786 448.507 647.31 448.507 674C448.507 700.69 453.928 724.44 464.768 745.25C476.06 765.607 491.644 781.44 511.518 792.75C531.844 804.06 554.881 809.714 580.627 809.714C624.441 809.714 661.705 791.167 692.42 754.071L777.79 831.429C754.754 860.381 725.846 882.548 691.065 897.929C656.285 913.31 617.214 921 573.852 921Z" fill="black"/>
<path d="M837.604 436.5H971.756V804.964H1198.05V911.5H837.604V436.5Z" fill="black"/>
<path d="M1483.03 921C1432.89 921 1387.72 910.369 1347.52 889.107C1307.78 867.845 1276.38 838.44 1253.35 800.893C1230.76 763.345 1219.47 721.048 1219.47 674C1219.47 626.952 1230.76 584.655 1253.35 547.107C1276.38 509.56 1307.78 480.155 1347.52 458.893C1387.72 437.631 1432.89 427 1483.03 427C1533.17 427 1578.11 437.631 1617.86 458.893C1658.06 480.155 1689.45 509.56 1712.04 547.107C1735.07 584.655 1746.59 626.952 1746.59 674C1746.59 721.048 1735.07 763.345 1712.04 800.893C1689.45 838.44 1658.06 867.845 1617.86 889.107C1578.11 910.369 1533.17 921 1483.03 921ZM1483.03 809.714C1506.97 809.714 1528.65 804.06 1548.07 792.75C1567.5 781.44 1582.86 765.607 1594.15 745.25C1605.44 724.44 1611.09 700.69 1611.09 674C1611.09 647.31 1605.44 623.786 1594.15 603.429C1582.86 582.619 1567.5 566.56 1548.07 555.25C1528.65 543.94 1506.97 538.286 1483.03 538.286C1459.09 538.286 1437.41 543.94 1417.99 555.25C1398.57 566.56 1383.21 582.619 1371.92 603.429C1360.62 623.786 1354.98 647.31 1354.98 674C1354.98 700.69 1360.62 724.44 1371.92 745.25C1383.21 765.607 1398.57 781.44 1417.99 792.75C1437.41 804.06 1459.09 809.714 1483.03 809.714Z" fill="black"/>
<path d="M1983.53 921C1945.14 921 1907.87 916.25 1871.74 906.75C1835.6 897.25 1806.24 884.583 1783.66 868.75L1827.7 769.679C1848.93 783.702 1873.54 795.012 1901.55 803.607C1929.55 812.202 1957.11 816.5 1984.21 816.5C2035.7 816.5 2061.45 803.607 2061.45 777.821C2061.45 764.25 2053.99 754.298 2039.09 747.964C2024.63 741.179 2001.15 734.167 1968.62 726.929C1932.94 719.238 1903.13 711.095 1879.19 702.5C1855.25 693.452 1834.7 679.202 1817.53 659.75C1800.37 640.298 1791.79 614.06 1791.79 581.036C1791.79 552.083 1799.69 526.071 1815.5 503C1831.31 479.476 1854.8 460.929 1885.96 447.357C1917.58 433.786 1956.2 427 2001.82 427C2032.99 427 2063.7 430.619 2093.97 437.857C2124.23 444.643 2150.88 454.821 2173.92 468.393L2132.59 568.143C2087.42 543.714 2043.6 531.5 2001.15 531.5C1974.5 531.5 1955.07 535.571 1942.88 543.714C1930.68 551.405 1924.58 561.583 1924.58 574.25C1924.58 586.917 1931.81 596.417 1946.27 602.75C1960.72 609.083 1983.98 615.643 2016.05 622.429C2052.19 630.119 2082 638.488 2105.49 647.536C2129.43 656.131 2149.98 670.155 2167.14 689.607C2184.76 708.607 2193.57 734.619 2193.57 767.643C2193.57 796.143 2185.66 821.929 2169.85 845C2154.04 868.071 2130.33 886.619 2098.71 900.643C2067.09 914.214 2028.7 921 1983.53 921Z" fill="black"/>
<path d="M2636.31 807.679V911.5H2255.53V436.5H2627.5V540.321H2388.33V620.393H2599.05V720.821H2388.33V807.679H2636.31Z" fill="black"/>
<path d="M2918.08 785.286H2844.91V911.5H2710.75V436.5H2927.57C2970.48 436.5 3007.74 443.738 3039.36 458.214C3070.98 472.238 3095.37 492.595 3112.53 519.286C3129.7 545.524 3138.28 576.512 3138.28 612.25C3138.28 646.631 3130.15 676.714 3113.89 702.5C3098.08 727.833 3075.27 747.738 3045.46 762.214L3147.76 911.5H3004.13L2918.08 785.286ZM3002.77 612.25C3002.77 590.083 2995.77 572.893 2981.77 560.679C2967.77 548.464 2946.99 542.357 2919.44 542.357H2844.91V681.464H2919.44C2946.99 681.464 2967.77 675.583 2981.77 663.821C2995.77 651.607 3002.77 634.417 3002.77 612.25Z" fill="black"/>
<path d="M3378.96 921C3340.57 921 3303.31 916.25 3267.17 906.75C3231.03 897.25 3201.67 884.583 3179.09 868.75L3223.13 769.679C3244.36 783.702 3268.98 795.012 3296.98 803.607C3324.99 812.202 3352.54 816.5 3379.64 816.5C3431.13 816.5 3456.88 803.607 3456.88 777.821C3456.88 764.25 3449.43 754.298 3434.52 747.964C3420.07 741.179 3396.58 734.167 3364.06 726.929C3328.37 719.238 3298.56 711.095 3274.62 702.5C3250.68 693.452 3230.13 679.202 3212.97 659.75C3195.8 640.298 3187.22 614.06 3187.22 581.036C3187.22 552.083 3195.13 526.071 3210.93 503C3226.74 479.476 3250.23 460.929 3281.4 447.357C3313.02 433.786 3351.64 427 3397.26 427C3428.42 427 3459.14 430.619 3489.4 437.857C3519.67 444.643 3546.32 454.821 3569.35 468.393L3528.02 568.143C3482.85 543.714 3439.04 531.5 3396.58 531.5C3369.93 531.5 3350.51 535.571 3338.31 543.714C3326.12 551.405 3320.02 561.583 3320.02 574.25C3320.02 586.917 3327.24 596.417 3341.7 602.75C3356.15 609.083 3379.42 615.643 3411.49 622.429C3447.62 630.119 3477.43 638.488 3500.92 647.536C3524.86 656.131 3545.41 670.155 3562.58 689.607C3580.19 708.607 3589 734.619 3589 767.643C3589 796.143 3581.1 821.929 3565.29 845C3549.48 868.071 3525.76 886.619 3494.14 900.643C3462.53 914.214 3424.13 921 3378.96 921Z" fill="black"/>
<path fill-rule="evenodd" clip-rule="evenodd" d="M390.672 920.395C389.837 944.499 384.24 966.118 373.879 985.25C372.056 988.545 370.126 991.721 368.09 994.778C364.09 999.529 360.264 1004.45 356.612 1009.54C348.311 1018.69 338.742 1026.43 327.905 1032.75C308.524 1044.06 286.889 1049.71 263 1049.71C239.111 1049.71 217.476 1044.06 198.095 1032.75C178.714 1021.44 163.389 1005.61 152.121 985.25C140.853 964.441 135.219 940.691 135.219 914C135.219 887.31 140.853 863.786 152.121 843.429C163.389 822.62 178.714 806.56 198.095 795.25C217.476 783.941 239.111 778.286 263 778.286C267.435 778.286 271.793 778.481 276.073 778.871C263.948 745.994 258 710.907 258 674C258 671.671 258.024 669.35 258.071 667.035C210.005 667.712 166.575 678.332 127.781 698.894C88.1174 720.155 56.7917 749.56 33.8046 787.108C11.2682 824.655 0 866.953 0 914C0 961.048 11.2682 1003.35 33.8046 1040.89C56.7917 1078.44 88.1174 1107.85 127.781 1129.11C167.896 1150.37 212.969 1161 263 1161C280.313 1161 297.006 1159.73 313.077 1157.18C314.108 1201.47 325.436 1241.45 347.062 1277.14C370.224 1314.61 401.787 1343.95 441.753 1365.17C482.173 1386.39 527.589 1397 578 1397C628.411 1397 673.6 1386.39 713.566 1365.17C753.985 1343.95 785.549 1314.61 808.257 1277.14C831.419 1239.67 843 1197.45 843 1150.5C843 1103.55 831.419 1061.34 808.257 1023.86C805.377 1019.11 802.355 1014.49 799.19 1010H2943C2943 1064.68 2898.68 1109 2844 1109V1397H3040V1208C3040 1153.32 3084.32 1109 3139 1109C3193.68 1109 3238 1153.32 3238 1208V1397H3434V1109C3379.32 1109 3335 1064.68 3335 1010H3550C3571.54 1010 3589 992.54 3589 971H571.562C507.995 971 444.289 954.877 390.672 920.395ZM512.602 1269.01C532.13 1280.3 553.93 1285.94 578 1285.94C602.07 1285.94 623.87 1280.3 643.398 1269.01C662.927 1257.72 678.368 1241.92 689.722 1221.61C701.076 1200.84 706.753 1177.14 706.753 1150.5C706.753 1123.86 701.076 1100.39 689.722 1080.07C678.368 1059.3 662.927 1043.28 643.398 1031.99C623.87 1020.7 602.07 1015.06 578 1015.06C553.93 1015.06 532.13 1020.7 512.602 1031.99C493.073 1043.28 477.632 1059.3 466.278 1080.07C454.924 1100.39 449.247 1123.86 449.247 1150.5C449.247 1177.14 454.924 1200.84 466.278 1221.61C477.632 1241.92 493.073 1257.72 512.602 1269.01Z" fill="#008B8B"/>
<path d="M599.762 97.8V354H563.162V239.808H416.03V354H379.43V97.8H416.03V207.966H563.162V97.8H599.762ZM782.588 356.928C748.428 356.928 721.832 347.168 702.8 327.648C683.768 308.128 674.252 280.068 674.252 243.468V97.8H710.852V242.004C710.852 296.904 734.886 324.354 782.954 324.354C806.378 324.354 824.312 317.644 836.756 304.224C849.2 290.56 855.422 269.82 855.422 242.004V97.8H890.924V243.468C890.924 280.312 881.408 308.494 862.376 328.014C843.344 347.29 816.748 356.928 782.588 356.928ZM965.959 97.8H1073.93C1101.01 97.8 1125.05 103.168 1146.03 113.904C1167.02 124.64 1183.24 139.768 1194.71 159.288C1206.42 178.564 1212.28 200.768 1212.28 225.9C1212.28 251.032 1206.42 273.358 1194.71 292.878C1183.24 312.154 1167.02 327.16 1146.03 337.896C1125.05 348.632 1101.01 354 1073.93 354H965.959V97.8ZM1071.73 322.158C1092.47 322.158 1110.65 318.132 1126.27 310.08C1142.13 302.028 1154.33 290.804 1162.87 276.408C1171.41 261.768 1175.68 244.932 1175.68 225.9C1175.68 206.868 1171.41 190.154 1162.87 175.758C1154.33 161.118 1142.13 149.772 1126.27 141.72C1110.65 133.668 1092.47 129.642 1071.73 129.642H1002.56V322.158H1071.73ZM1343 356.928C1323.73 356.928 1305.06 354 1287 348.144C1269.19 342.044 1255.16 334.236 1244.91 324.72L1258.46 296.172C1268.22 304.956 1280.66 312.154 1295.79 317.766C1311.16 323.134 1326.9 325.818 1343 325.818C1364.23 325.818 1380.09 322.28 1390.58 315.204C1401.07 307.884 1406.32 298.246 1406.32 286.29C1406.32 277.506 1403.39 270.43 1397.54 265.062C1391.92 259.45 1384.85 255.18 1376.31 252.252C1368.01 249.324 1356.18 246.03 1340.81 242.37C1321.53 237.734 1305.91 233.098 1293.96 228.462C1282.25 223.826 1272.12 216.75 1263.58 207.234C1255.28 197.474 1251.14 184.42 1251.14 168.072C1251.14 154.408 1254.67 142.086 1261.75 131.106C1269.07 120.126 1280.05 111.342 1294.69 104.754C1309.33 98.166 1327.51 94.872 1349.22 94.872C1364.35 94.872 1379.24 96.824 1393.88 100.728C1408.52 104.632 1421.08 110.244 1431.57 117.564L1419.5 146.844C1408.76 140.012 1397.29 134.888 1385.09 131.472C1372.89 127.812 1360.94 125.982 1349.22 125.982C1328.48 125.982 1312.87 129.764 1302.38 137.328C1292.13 144.892 1287 154.652 1287 166.608C1287 175.392 1289.93 182.59 1295.79 188.202C1301.64 193.57 1308.84 197.84 1317.38 201.012C1326.17 203.94 1338 207.112 1352.88 210.528C1372.16 215.164 1387.65 219.8 1399.37 224.436C1411.08 229.072 1421.08 236.148 1429.38 245.664C1437.92 255.18 1442.19 267.99 1442.19 284.094C1442.19 297.514 1438.53 309.836 1431.21 321.06C1423.89 332.04 1412.79 340.824 1397.9 347.412C1383.02 353.756 1364.72 356.928 1343 356.928ZM1611.31 356.928C1585.45 356.928 1562.15 351.316 1541.41 340.092C1520.67 328.624 1504.32 312.886 1492.36 292.878C1480.65 272.87 1474.8 250.544 1474.8 225.9C1474.8 201.256 1480.65 178.93 1492.36 158.922C1504.32 138.914 1520.67 123.298 1541.41 112.074C1562.15 100.606 1585.45 94.872 1611.31 94.872C1636.93 94.872 1660.11 100.606 1680.85 112.074C1701.59 123.298 1717.82 138.914 1729.53 158.922C1741.24 178.686 1747.1 201.012 1747.1 225.9C1747.1 250.788 1741.24 273.236 1729.53 293.244C1717.82 313.008 1701.59 328.624 1680.85 340.092C1660.11 351.316 1636.93 356.928 1611.31 356.928ZM1611.31 324.354C1630.1 324.354 1646.94 320.084 1661.82 311.544C1676.95 303.004 1688.78 291.292 1697.32 276.408C1706.11 261.28 1710.5 244.444 1710.5 225.9C1710.5 207.356 1706.11 190.642 1697.32 175.758C1688.78 160.63 1676.95 148.796 1661.82 140.256C1646.94 131.716 1630.1 127.446 1611.31 127.446C1592.53 127.446 1575.45 131.716 1560.07 140.256C1544.95 148.796 1532.99 160.63 1524.21 175.758C1515.67 190.642 1511.4 207.356 1511.4 225.9C1511.4 244.444 1515.67 261.28 1524.21 276.408C1532.99 291.292 1544.95 303.004 1560.07 311.544C1575.45 320.084 1592.53 324.354 1611.31 324.354ZM2023.37 97.8V354H1993.36L1839.64 162.948V354H1803.04V97.8H1833.05L1986.77 288.852V97.8H2023.37ZM2420.88 97.8L2308.52 354H2272.28L2159.55 97.8H2199.08L2291.31 308.25L2384.28 97.8H2420.88ZM2608.56 289.95H2472.41L2444.23 354H2406.53L2522.55 97.8H2558.79L2675.18 354H2636.75L2608.56 289.95ZM2595.75 260.67L2540.49 135.132L2485.22 260.67H2595.75ZM2713.39 97.8H2749.99V322.158H2888.71V354H2713.39V97.8ZM2930.71 97.8H2967.31V322.158H3106.02V354H2930.71V97.8ZM3333.95 322.158V354H3148.02V97.8H3328.82V129.642H3184.62V208.332H3313.09V239.442H3184.62V322.158H3333.95ZM3488.44 265.428V354H3452.21V264.696L3350.46 97.8H3389.62L3471.6 232.854L3553.95 97.8H3590.19L3488.44 265.428Z" fill="black"/>
</svg>
